<mxfile host="app.diagrams.net" modified="2021-10-31T23:08:47.126Z" agent="5.0 (Macintosh; Intel Mac OS X 10_15_7) AppleWebKit/537.36 (KHTML, like Gecko) Chrome/95.0.4638.54 Safari/537.36 Edg/95.0.1020.30" etag="MCPHWiDQT2aIbAITA4Yv" version="15.6.3" type="github">
  <diagram id="C5RBs43oDa-KdzZeNtuy" name="Page-1">
    <mxGraphModel dx="2252" dy="1717" grid="1" gridSize="10" guides="1" tooltips="1" connect="1" arrows="1" fold="1" page="1" pageScale="1" pageWidth="827" pageHeight="1169" math="0" shadow="0">
      <root>
        <mxCell id="WIyWlLk6GJQsqaUBKTNV-0" />
        <mxCell id="WIyWlLk6GJQsqaUBKTNV-1" parent="WIyWlLk6GJQsqaUBKTNV-0" />
        <mxCell id="oDRWTTb9NCR1l0aIHSZ5-0" value="Usuario" style="swimlane;fontStyle=1;align=center;verticalAlign=top;childLayout=stackLayout;horizontal=1;startSize=26;horizontalStack=0;resizeParent=1;resizeParentMax=0;resizeLast=0;collapsible=1;marginBottom=0;" vertex="1" parent="WIyWlLk6GJQsqaUBKTNV-1">
          <mxGeometry x="460" y="-510" width="160" height="112" as="geometry" />
        </mxCell>
        <mxCell id="oDRWTTb9NCR1l0aIHSZ5-1" value="- id: int" style="text;strokeColor=none;fillColor=none;align=left;verticalAlign=top;spacingLeft=4;spacingRight=4;overflow=hidden;rotatable=0;points=[[0,0.5],[1,0.5]];portConstraint=eastwest;" vertex="1" parent="oDRWTTb9NCR1l0aIHSZ5-0">
          <mxGeometry y="26" width="160" height="26" as="geometry" />
        </mxCell>
        <mxCell id="oDRWTTb9NCR1l0aIHSZ5-2" value="- email: String" style="text;strokeColor=none;fillColor=none;align=left;verticalAlign=top;spacingLeft=4;spacingRight=4;overflow=hidden;rotatable=0;points=[[0,0.5],[1,0.5]];portConstraint=eastwest;" vertex="1" parent="oDRWTTb9NCR1l0aIHSZ5-0">
          <mxGeometry y="52" width="160" height="26" as="geometry" />
        </mxCell>
        <mxCell id="oDRWTTb9NCR1l0aIHSZ5-3" value="- senha: String" style="text;strokeColor=none;fillColor=none;align=left;verticalAlign=top;spacingLeft=4;spacingRight=4;overflow=hidden;rotatable=0;points=[[0,0.5],[1,0.5]];portConstraint=eastwest;" vertex="1" parent="oDRWTTb9NCR1l0aIHSZ5-0">
          <mxGeometry y="78" width="160" height="26" as="geometry" />
        </mxCell>
        <mxCell id="oDRWTTb9NCR1l0aIHSZ5-4" value="" style="line;strokeWidth=1;fillColor=none;align=left;verticalAlign=middle;spacingTop=-1;spacingLeft=3;spacingRight=3;rotatable=0;labelPosition=right;points=[];portConstraint=eastwest;" vertex="1" parent="oDRWTTb9NCR1l0aIHSZ5-0">
          <mxGeometry y="104" width="160" height="8" as="geometry" />
        </mxCell>
        <mxCell id="oDRWTTb9NCR1l0aIHSZ5-104" style="edgeStyle=orthogonalEdgeStyle;rounded=0;orthogonalLoop=1;jettySize=auto;html=1;exitX=0.5;exitY=0;exitDx=0;exitDy=0;endArrow=block;endFill=0;endSize=16;" edge="1" parent="WIyWlLk6GJQsqaUBKTNV-1" source="oDRWTTb9NCR1l0aIHSZ5-6">
          <mxGeometry relative="1" as="geometry">
            <mxPoint x="520" y="-390" as="targetPoint" />
          </mxGeometry>
        </mxCell>
        <mxCell id="oDRWTTb9NCR1l0aIHSZ5-6" value="Estudante" style="swimlane;fontStyle=1;align=center;verticalAlign=top;childLayout=stackLayout;horizontal=1;startSize=26;horizontalStack=0;resizeParent=1;resizeParentMax=0;resizeLast=0;collapsible=1;marginBottom=0;" vertex="1" parent="WIyWlLk6GJQsqaUBKTNV-1">
          <mxGeometry x="405" y="-340" width="230" height="112" as="geometry" />
        </mxCell>
        <mxCell id="oDRWTTb9NCR1l0aIHSZ5-7" value="- endereco: String" style="text;strokeColor=none;fillColor=none;align=left;verticalAlign=top;spacingLeft=4;spacingRight=4;overflow=hidden;rotatable=0;points=[[0,0.5],[1,0.5]];portConstraint=eastwest;" vertex="1" parent="oDRWTTb9NCR1l0aIHSZ5-6">
          <mxGeometry y="26" width="230" height="26" as="geometry" />
        </mxCell>
        <mxCell id="oDRWTTb9NCR1l0aIHSZ5-8" value="- rg: string" style="text;strokeColor=none;fillColor=none;align=left;verticalAlign=top;spacingLeft=4;spacingRight=4;overflow=hidden;rotatable=0;points=[[0,0.5],[1,0.5]];portConstraint=eastwest;" vertex="1" parent="oDRWTTb9NCR1l0aIHSZ5-6">
          <mxGeometry y="52" width="230" height="26" as="geometry" />
        </mxCell>
        <mxCell id="oDRWTTb9NCR1l0aIHSZ5-9" value="- cpf: string" style="text;strokeColor=none;fillColor=none;align=left;verticalAlign=top;spacingLeft=4;spacingRight=4;overflow=hidden;rotatable=0;points=[[0,0.5],[1,0.5]];portConstraint=eastwest;" vertex="1" parent="oDRWTTb9NCR1l0aIHSZ5-6">
          <mxGeometry y="78" width="230" height="26" as="geometry" />
        </mxCell>
        <mxCell id="oDRWTTb9NCR1l0aIHSZ5-11" value="" style="line;strokeWidth=1;fillColor=none;align=left;verticalAlign=middle;spacingTop=-1;spacingLeft=3;spacingRight=3;rotatable=0;labelPosition=right;points=[];portConstraint=eastwest;" vertex="1" parent="oDRWTTb9NCR1l0aIHSZ5-6">
          <mxGeometry y="104" width="230" height="8" as="geometry" />
        </mxCell>
        <mxCell id="oDRWTTb9NCR1l0aIHSZ5-93" style="edgeStyle=orthogonalEdgeStyle;rounded=0;orthogonalLoop=1;jettySize=auto;html=1;exitX=0.5;exitY=1;exitDx=0;exitDy=0;entryX=0.391;entryY=-0.017;entryDx=0;entryDy=0;entryPerimeter=0;endArrow=diamondThin;endFill=0;endSize=16;" edge="1" parent="WIyWlLk6GJQsqaUBKTNV-1" source="oDRWTTb9NCR1l0aIHSZ5-13" target="oDRWTTb9NCR1l0aIHSZ5-86">
          <mxGeometry relative="1" as="geometry" />
        </mxCell>
        <mxCell id="oDRWTTb9NCR1l0aIHSZ5-13" value="Professor" style="swimlane;fontStyle=1;align=center;verticalAlign=top;childLayout=stackLayout;horizontal=1;startSize=26;horizontalStack=0;resizeParent=1;resizeParentMax=0;resizeLast=0;collapsible=1;marginBottom=0;" vertex="1" parent="WIyWlLk6GJQsqaUBKTNV-1">
          <mxGeometry x="710" y="-497" width="200" height="86" as="geometry" />
        </mxCell>
        <mxCell id="oDRWTTb9NCR1l0aIHSZ5-14" value="- departamento: Departamento" style="text;strokeColor=none;fillColor=none;align=left;verticalAlign=top;spacingLeft=4;spacingRight=4;overflow=hidden;rotatable=0;points=[[0,0.5],[1,0.5]];portConstraint=eastwest;" vertex="1" parent="oDRWTTb9NCR1l0aIHSZ5-13">
          <mxGeometry y="26" width="200" height="26" as="geometry" />
        </mxCell>
        <mxCell id="oDRWTTb9NCR1l0aIHSZ5-15" value="- tipo: string" style="text;strokeColor=none;fillColor=none;align=left;verticalAlign=top;spacingLeft=4;spacingRight=4;overflow=hidden;rotatable=0;points=[[0,0.5],[1,0.5]];portConstraint=eastwest;" vertex="1" parent="oDRWTTb9NCR1l0aIHSZ5-13">
          <mxGeometry y="52" width="200" height="26" as="geometry" />
        </mxCell>
        <mxCell id="oDRWTTb9NCR1l0aIHSZ5-16" value="" style="line;strokeWidth=1;fillColor=none;align=left;verticalAlign=middle;spacingTop=-1;spacingLeft=3;spacingRight=3;rotatable=0;labelPosition=right;points=[];portConstraint=eastwest;" vertex="1" parent="oDRWTTb9NCR1l0aIHSZ5-13">
          <mxGeometry y="78" width="200" height="8" as="geometry" />
        </mxCell>
        <mxCell id="oDRWTTb9NCR1l0aIHSZ5-41" style="edgeStyle=orthogonalEdgeStyle;rounded=0;orthogonalLoop=1;jettySize=auto;html=1;exitX=1;exitY=0.25;exitDx=0;exitDy=0;entryX=0;entryY=0.5;entryDx=0;entryDy=0;startArrow=none;startFill=0;endArrow=none;endFill=0;startSize=20;endSize=15;sourcePerimeterSpacing=8;targetPerimeterSpacing=20;" edge="1" parent="WIyWlLk6GJQsqaUBKTNV-1" source="oDRWTTb9NCR1l0aIHSZ5-42" target="oDRWTTb9NCR1l0aIHSZ5-46">
          <mxGeometry relative="1" as="geometry">
            <Array as="points">
              <mxPoint x="300" y="297" />
            </Array>
          </mxGeometry>
        </mxCell>
        <mxCell id="oDRWTTb9NCR1l0aIHSZ5-42" value="Usuario" style="swimlane;fontStyle=1;align=center;verticalAlign=top;childLayout=stackLayout;horizontal=1;startSize=26;horizontalStack=0;resizeParent=1;resizeParentMax=0;resizeLast=0;collapsible=1;marginBottom=0;fillColor=none;" vertex="1" parent="WIyWlLk6GJQsqaUBKTNV-1">
          <mxGeometry x="-60" y="280" width="360" height="86" as="geometry" />
        </mxCell>
        <mxCell id="oDRWTTb9NCR1l0aIHSZ5-43" value="" style="line;strokeWidth=1;fillColor=none;align=left;verticalAlign=middle;spacingTop=-1;spacingLeft=3;spacingRight=3;rotatable=0;labelPosition=right;points=[];portConstraint=eastwest;" vertex="1" parent="oDRWTTb9NCR1l0aIHSZ5-42">
          <mxGeometry y="26" width="360" height="8" as="geometry" />
        </mxCell>
        <mxCell id="oDRWTTb9NCR1l0aIHSZ5-125" value="+ comprar(vantagem Vantagem): void" style="text;strokeColor=none;fillColor=none;align=left;verticalAlign=top;spacingLeft=4;spacingRight=4;overflow=hidden;rotatable=0;points=[[0,0.5],[1,0.5]];portConstraint=eastwest;" vertex="1" parent="oDRWTTb9NCR1l0aIHSZ5-42">
          <mxGeometry y="34" width="360" height="26" as="geometry" />
        </mxCell>
        <mxCell id="oDRWTTb9NCR1l0aIHSZ5-124" value="addVantagem: (valor: double, desc: string, foto: string): void" style="text;strokeColor=none;fillColor=none;align=left;verticalAlign=top;spacingLeft=4;spacingRight=4;overflow=hidden;rotatable=0;points=[[0,0.5],[1,0.5]];portConstraint=eastwest;" vertex="1" parent="oDRWTTb9NCR1l0aIHSZ5-42">
          <mxGeometry y="60" width="360" height="26" as="geometry" />
        </mxCell>
        <mxCell id="oDRWTTb9NCR1l0aIHSZ5-46" value="Transacao" style="swimlane;fontStyle=1;align=center;verticalAlign=top;childLayout=stackLayout;horizontal=1;startSize=26;horizontalStack=0;resizeParent=1;resizeParentMax=0;resizeLast=0;collapsible=1;marginBottom=0;fillColor=none;" vertex="1" parent="WIyWlLk6GJQsqaUBKTNV-1">
          <mxGeometry x="460" y="280" width="160" height="34" as="geometry" />
        </mxCell>
        <mxCell id="oDRWTTb9NCR1l0aIHSZ5-47" value="" style="line;strokeWidth=1;fillColor=none;align=left;verticalAlign=middle;spacingTop=-1;spacingLeft=3;spacingRight=3;rotatable=0;labelPosition=right;points=[];portConstraint=eastwest;" vertex="1" parent="oDRWTTb9NCR1l0aIHSZ5-46">
          <mxGeometry y="26" width="160" height="8" as="geometry" />
        </mxCell>
        <mxCell id="oDRWTTb9NCR1l0aIHSZ5-51" value="Carteira" style="swimlane;fontStyle=1;align=center;verticalAlign=top;childLayout=stackLayout;horizontal=1;startSize=26;horizontalStack=0;resizeParent=1;resizeParentMax=0;resizeLast=0;collapsible=1;marginBottom=0;fillColor=none;" vertex="1" parent="WIyWlLk6GJQsqaUBKTNV-1">
          <mxGeometry x="720" y="280" width="160" height="34" as="geometry" />
        </mxCell>
        <mxCell id="oDRWTTb9NCR1l0aIHSZ5-52" value="" style="line;strokeWidth=1;fillColor=none;align=left;verticalAlign=middle;spacingTop=-1;spacingLeft=3;spacingRight=3;rotatable=0;labelPosition=right;points=[];portConstraint=eastwest;" vertex="1" parent="oDRWTTb9NCR1l0aIHSZ5-51">
          <mxGeometry y="26" width="160" height="8" as="geometry" />
        </mxCell>
        <mxCell id="oDRWTTb9NCR1l0aIHSZ5-54" style="edgeStyle=orthogonalEdgeStyle;rounded=0;orthogonalLoop=1;jettySize=auto;html=1;exitX=0.25;exitY=0;exitDx=0;exitDy=0;entryX=0.5;entryY=1;entryDx=0;entryDy=0;startArrow=none;startFill=0;endArrow=block;endFill=0;startSize=20;endSize=15;sourcePerimeterSpacing=8;targetPerimeterSpacing=20;dashed=1;" edge="1" parent="WIyWlLk6GJQsqaUBKTNV-1" source="oDRWTTb9NCR1l0aIHSZ5-59" target="oDRWTTb9NCR1l0aIHSZ5-46">
          <mxGeometry relative="1" as="geometry">
            <Array as="points">
              <mxPoint x="540" y="470" />
            </Array>
          </mxGeometry>
        </mxCell>
        <mxCell id="oDRWTTb9NCR1l0aIHSZ5-56" style="edgeStyle=orthogonalEdgeStyle;rounded=0;orthogonalLoop=1;jettySize=auto;html=1;exitX=0.75;exitY=0;exitDx=0;exitDy=0;entryX=0.5;entryY=1;entryDx=0;entryDy=0;dashed=1;startArrow=none;startFill=0;endArrow=block;endFill=0;startSize=20;endSize=15;sourcePerimeterSpacing=8;targetPerimeterSpacing=20;" edge="1" parent="WIyWlLk6GJQsqaUBKTNV-1" source="oDRWTTb9NCR1l0aIHSZ5-59" target="oDRWTTb9NCR1l0aIHSZ5-51">
          <mxGeometry relative="1" as="geometry" />
        </mxCell>
        <mxCell id="oDRWTTb9NCR1l0aIHSZ5-57" style="edgeStyle=orthogonalEdgeStyle;rounded=0;orthogonalLoop=1;jettySize=auto;html=1;exitX=0;exitY=0.5;exitDx=0;exitDy=0;dashed=1;startArrow=none;startFill=0;endArrow=block;endFill=0;startSize=20;endSize=15;sourcePerimeterSpacing=8;targetPerimeterSpacing=20;" edge="1" parent="WIyWlLk6GJQsqaUBKTNV-1" source="oDRWTTb9NCR1l0aIHSZ5-59">
          <mxGeometry relative="1" as="geometry">
            <mxPoint x="180" y="370" as="targetPoint" />
          </mxGeometry>
        </mxCell>
        <mxCell id="oDRWTTb9NCR1l0aIHSZ5-58" style="edgeStyle=orthogonalEdgeStyle;rounded=0;orthogonalLoop=1;jettySize=auto;html=1;exitX=0.5;exitY=1;exitDx=0;exitDy=0;entryX=0.412;entryY=-0.002;entryDx=0;entryDy=0;entryPerimeter=0;dashed=1;startArrow=none;startFill=0;endArrow=open;endFill=0;startSize=20;endSize=15;sourcePerimeterSpacing=8;targetPerimeterSpacing=20;" edge="1" parent="WIyWlLk6GJQsqaUBKTNV-1" source="oDRWTTb9NCR1l0aIHSZ5-59" target="oDRWTTb9NCR1l0aIHSZ5-73">
          <mxGeometry relative="1" as="geometry" />
        </mxCell>
        <mxCell id="oDRWTTb9NCR1l0aIHSZ5-59" value="&lt;p style=&quot;margin: 0px ; margin-top: 4px ; text-align: center&quot;&gt;&lt;i&gt;&amp;lt;&amp;lt;Interface&amp;gt;&amp;gt;&lt;/i&gt;&lt;br&gt;&lt;b&gt;CRUD&lt;/b&gt;&lt;/p&gt;&lt;hr size=&quot;1&quot;&gt;&lt;p style=&quot;margin: 0px ; margin-left: 4px&quot;&gt;&lt;/p&gt;&lt;p style=&quot;margin: 0px ; margin-left: 4px&quot;&gt;+ cadastrar(): void&lt;br&gt;+ atualizar(int id): void&lt;/p&gt;&lt;p style=&quot;margin: 0px ; margin-left: 4px&quot;&gt;+ consultar(int id): void&lt;br&gt;&lt;/p&gt;&lt;p style=&quot;margin: 0px ; margin-left: 4px&quot;&gt;+ remover(int id): void&lt;br&gt;&lt;/p&gt;" style="verticalAlign=top;align=left;overflow=fill;fontSize=12;fontFamily=Helvetica;html=1;fillColor=none;" vertex="1" parent="WIyWlLk6GJQsqaUBKTNV-1">
          <mxGeometry x="490" y="470" width="190" height="140" as="geometry" />
        </mxCell>
        <mxCell id="oDRWTTb9NCR1l0aIHSZ5-62" value="Rotas" style="swimlane;fontStyle=1;align=center;verticalAlign=top;childLayout=stackLayout;horizontal=1;startSize=26;horizontalStack=0;resizeParent=1;resizeParentMax=0;resizeLast=0;collapsible=1;marginBottom=0;fillColor=none;" vertex="1" parent="WIyWlLk6GJQsqaUBKTNV-1">
          <mxGeometry x="1030" y="332" width="160" height="138" as="geometry" />
        </mxCell>
        <mxCell id="oDRWTTb9NCR1l0aIHSZ5-63" value="" style="line;strokeWidth=1;fillColor=none;align=left;verticalAlign=middle;spacingTop=-1;spacingLeft=3;spacingRight=3;rotatable=0;labelPosition=right;points=[];portConstraint=eastwest;" vertex="1" parent="oDRWTTb9NCR1l0aIHSZ5-62">
          <mxGeometry y="26" width="160" height="8" as="geometry" />
        </mxCell>
        <mxCell id="oDRWTTb9NCR1l0aIHSZ5-64" value="+ usuario(): void&#xa;" style="text;strokeColor=none;fillColor=none;align=left;verticalAlign=top;spacingLeft=4;spacingRight=4;overflow=hidden;rotatable=0;points=[[0,0.5],[1,0.5]];portConstraint=eastwest;" vertex="1" parent="oDRWTTb9NCR1l0aIHSZ5-62">
          <mxGeometry y="34" width="160" height="26" as="geometry" />
        </mxCell>
        <mxCell id="oDRWTTb9NCR1l0aIHSZ5-65" value="+ pedido(): void&#xa;" style="text;strokeColor=none;fillColor=none;align=left;verticalAlign=top;spacingLeft=4;spacingRight=4;overflow=hidden;rotatable=0;points=[[0,0.5],[1,0.5]];portConstraint=eastwest;" vertex="1" parent="oDRWTTb9NCR1l0aIHSZ5-62">
          <mxGeometry y="60" width="160" height="26" as="geometry" />
        </mxCell>
        <mxCell id="oDRWTTb9NCR1l0aIHSZ5-66" value="+ aluguel(): void&#xa;" style="text;strokeColor=none;fillColor=none;align=left;verticalAlign=top;spacingLeft=4;spacingRight=4;overflow=hidden;rotatable=0;points=[[0,0.5],[1,0.5]];portConstraint=eastwest;" vertex="1" parent="oDRWTTb9NCR1l0aIHSZ5-62">
          <mxGeometry y="86" width="160" height="26" as="geometry" />
        </mxCell>
        <mxCell id="oDRWTTb9NCR1l0aIHSZ5-67" value="+ veiculo(): void&#xa;" style="text;strokeColor=none;fillColor=none;align=left;verticalAlign=top;spacingLeft=4;spacingRight=4;overflow=hidden;rotatable=0;points=[[0,0.5],[1,0.5]];portConstraint=eastwest;" vertex="1" parent="oDRWTTb9NCR1l0aIHSZ5-62">
          <mxGeometry y="112" width="160" height="26" as="geometry" />
        </mxCell>
        <mxCell id="oDRWTTb9NCR1l0aIHSZ5-68" style="edgeStyle=orthogonalEdgeStyle;rounded=0;orthogonalLoop=1;jettySize=auto;html=1;exitX=0;exitY=0;exitDx=0;exitDy=277;exitPerimeter=0;entryX=1;entryY=0.504;entryDx=0;entryDy=0;entryPerimeter=0;dashed=1;startArrow=none;startFill=0;endArrow=open;endFill=0;startSize=20;endSize=15;sourcePerimeterSpacing=8;targetPerimeterSpacing=20;" edge="1" parent="WIyWlLk6GJQsqaUBKTNV-1" source="oDRWTTb9NCR1l0aIHSZ5-69">
          <mxGeometry relative="1" as="geometry">
            <mxPoint x="910" y="467.2000000000003" as="targetPoint" />
          </mxGeometry>
        </mxCell>
        <mxCell id="oDRWTTb9NCR1l0aIHSZ5-69" value="" style="shape=folder;fontStyle=1;spacingTop=10;tabWidth=40;tabHeight=14;tabPosition=left;html=1;fillColor=none;" vertex="1" parent="WIyWlLk6GJQsqaUBKTNV-1">
          <mxGeometry x="940" y="190" width="340" height="540" as="geometry" />
        </mxCell>
        <mxCell id="oDRWTTb9NCR1l0aIHSZ5-71" value="&lt;b&gt;CONTROLLER&lt;/b&gt;" style="text;html=1;strokeColor=none;fillColor=none;align=center;verticalAlign=middle;whiteSpace=wrap;rounded=0;" vertex="1" parent="WIyWlLk6GJQsqaUBKTNV-1">
          <mxGeometry x="420" y="200" width="40" height="20" as="geometry" />
        </mxCell>
        <mxCell id="oDRWTTb9NCR1l0aIHSZ5-72" value="&lt;b&gt;VIEW&lt;/b&gt;" style="text;html=1;strokeColor=none;fillColor=none;align=center;verticalAlign=middle;whiteSpace=wrap;rounded=0;" vertex="1" parent="WIyWlLk6GJQsqaUBKTNV-1">
          <mxGeometry x="1080" y="220" width="40" height="20" as="geometry" />
        </mxCell>
        <mxCell id="oDRWTTb9NCR1l0aIHSZ5-73" value="DAO" style="swimlane;fontStyle=1;align=center;verticalAlign=top;childLayout=stackLayout;horizontal=1;startSize=26;horizontalStack=0;resizeParent=1;resizeParentMax=0;resizeLast=0;collapsible=1;marginBottom=0;fillColor=none;" vertex="1" parent="WIyWlLk6GJQsqaUBKTNV-1">
          <mxGeometry x="520" y="830" width="160" height="34" as="geometry" />
        </mxCell>
        <mxCell id="oDRWTTb9NCR1l0aIHSZ5-74" value="" style="line;strokeWidth=1;fillColor=none;align=left;verticalAlign=middle;spacingTop=-1;spacingLeft=3;spacingRight=3;rotatable=0;labelPosition=right;points=[];portConstraint=eastwest;" vertex="1" parent="oDRWTTb9NCR1l0aIHSZ5-73">
          <mxGeometry y="26" width="160" height="8" as="geometry" />
        </mxCell>
        <mxCell id="oDRWTTb9NCR1l0aIHSZ5-75" value="" style="shape=folder;fontStyle=1;spacingTop=10;tabWidth=40;tabHeight=14;tabPosition=left;html=1;fillColor=none;" vertex="1" parent="WIyWlLk6GJQsqaUBKTNV-1">
          <mxGeometry x="470" y="770" width="290" height="160" as="geometry" />
        </mxCell>
        <mxCell id="oDRWTTb9NCR1l0aIHSZ5-76" value="&lt;b&gt;DAO&lt;/b&gt;" style="text;html=1;strokeColor=none;fillColor=none;align=center;verticalAlign=middle;whiteSpace=wrap;rounded=0;" vertex="1" parent="WIyWlLk6GJQsqaUBKTNV-1">
          <mxGeometry x="510" y="790" width="40" height="20" as="geometry" />
        </mxCell>
        <mxCell id="oDRWTTb9NCR1l0aIHSZ5-81" value="Departamento" style="swimlane;fontStyle=1;align=center;verticalAlign=top;childLayout=stackLayout;horizontal=1;startSize=26;horizontalStack=0;resizeParent=1;resizeParentMax=0;resizeLast=0;collapsible=1;marginBottom=0;" vertex="1" parent="WIyWlLk6GJQsqaUBKTNV-1">
          <mxGeometry x="980" y="-497" width="160" height="86" as="geometry" />
        </mxCell>
        <mxCell id="oDRWTTb9NCR1l0aIHSZ5-82" value="- nome: string" style="text;strokeColor=none;fillColor=none;align=left;verticalAlign=top;spacingLeft=4;spacingRight=4;overflow=hidden;rotatable=0;points=[[0,0.5],[1,0.5]];portConstraint=eastwest;" vertex="1" parent="oDRWTTb9NCR1l0aIHSZ5-81">
          <mxGeometry y="26" width="160" height="26" as="geometry" />
        </mxCell>
        <mxCell id="oDRWTTb9NCR1l0aIHSZ5-83" value="- id: int" style="text;strokeColor=none;fillColor=none;align=left;verticalAlign=top;spacingLeft=4;spacingRight=4;overflow=hidden;rotatable=0;points=[[0,0.5],[1,0.5]];portConstraint=eastwest;" vertex="1" parent="oDRWTTb9NCR1l0aIHSZ5-81">
          <mxGeometry y="52" width="160" height="26" as="geometry" />
        </mxCell>
        <mxCell id="oDRWTTb9NCR1l0aIHSZ5-84" value="" style="line;strokeWidth=1;fillColor=none;align=left;verticalAlign=middle;spacingTop=-1;spacingLeft=3;spacingRight=3;rotatable=0;labelPosition=right;points=[];portConstraint=eastwest;" vertex="1" parent="oDRWTTb9NCR1l0aIHSZ5-81">
          <mxGeometry y="78" width="160" height="8" as="geometry" />
        </mxCell>
        <mxCell id="oDRWTTb9NCR1l0aIHSZ5-85" style="edgeStyle=orthogonalEdgeStyle;rounded=0;orthogonalLoop=1;jettySize=auto;html=1;exitX=0;exitY=0.5;exitDx=0;exitDy=0;entryX=1;entryY=0.5;entryDx=0;entryDy=0;endArrow=none;endFill=0;endSize=16;" edge="1" parent="WIyWlLk6GJQsqaUBKTNV-1" source="oDRWTTb9NCR1l0aIHSZ5-82" target="oDRWTTb9NCR1l0aIHSZ5-14">
          <mxGeometry relative="1" as="geometry" />
        </mxCell>
        <mxCell id="oDRWTTb9NCR1l0aIHSZ5-101" style="edgeStyle=orthogonalEdgeStyle;rounded=0;orthogonalLoop=1;jettySize=auto;html=1;exitX=0.25;exitY=1;exitDx=0;exitDy=0;entryX=0.335;entryY=-0.007;entryDx=0;entryDy=0;entryPerimeter=0;endArrow=diamondThin;endFill=0;endSize=16;" edge="1" parent="WIyWlLk6GJQsqaUBKTNV-1" source="oDRWTTb9NCR1l0aIHSZ5-86" target="oDRWTTb9NCR1l0aIHSZ5-94">
          <mxGeometry relative="1" as="geometry" />
        </mxCell>
        <mxCell id="oDRWTTb9NCR1l0aIHSZ5-86" value="Carteira" style="swimlane;fontStyle=1;align=center;verticalAlign=top;childLayout=stackLayout;horizontal=1;startSize=26;horizontalStack=0;resizeParent=1;resizeParentMax=0;resizeLast=0;collapsible=1;marginBottom=0;" vertex="1" parent="WIyWlLk6GJQsqaUBKTNV-1">
          <mxGeometry x="720" y="-330" width="230" height="60" as="geometry" />
        </mxCell>
        <mxCell id="oDRWTTb9NCR1l0aIHSZ5-87" value="- saldo: double" style="text;strokeColor=none;fillColor=none;align=left;verticalAlign=top;spacingLeft=4;spacingRight=4;overflow=hidden;rotatable=0;points=[[0,0.5],[1,0.5]];portConstraint=eastwest;" vertex="1" parent="oDRWTTb9NCR1l0aIHSZ5-86">
          <mxGeometry y="26" width="230" height="26" as="geometry" />
        </mxCell>
        <mxCell id="oDRWTTb9NCR1l0aIHSZ5-90" value="" style="line;strokeWidth=1;fillColor=none;align=left;verticalAlign=middle;spacingTop=-1;spacingLeft=3;spacingRight=3;rotatable=0;labelPosition=right;points=[];portConstraint=eastwest;" vertex="1" parent="oDRWTTb9NCR1l0aIHSZ5-86">
          <mxGeometry y="52" width="230" height="8" as="geometry" />
        </mxCell>
        <mxCell id="oDRWTTb9NCR1l0aIHSZ5-92" style="edgeStyle=orthogonalEdgeStyle;rounded=0;orthogonalLoop=1;jettySize=auto;html=1;exitX=0;exitY=0.5;exitDx=0;exitDy=0;endArrow=block;endFill=0;endSize=16;" edge="1" parent="WIyWlLk6GJQsqaUBKTNV-1" source="oDRWTTb9NCR1l0aIHSZ5-14">
          <mxGeometry relative="1" as="geometry">
            <mxPoint x="630" y="-458" as="targetPoint" />
          </mxGeometry>
        </mxCell>
        <mxCell id="oDRWTTb9NCR1l0aIHSZ5-94" value="Transacao" style="swimlane;fontStyle=1;align=center;verticalAlign=top;childLayout=stackLayout;horizontal=1;startSize=26;horizontalStack=0;resizeParent=1;resizeParentMax=0;resizeLast=0;collapsible=1;marginBottom=0;" vertex="1" parent="WIyWlLk6GJQsqaUBKTNV-1">
          <mxGeometry x="700" y="-192" width="230" height="138" as="geometry" />
        </mxCell>
        <mxCell id="oDRWTTb9NCR1l0aIHSZ5-95" value="- id:int    " style="text;strokeColor=none;fillColor=none;align=left;verticalAlign=top;spacingLeft=4;spacingRight=4;overflow=hidden;rotatable=0;points=[[0,0.5],[1,0.5]];portConstraint=eastwest;" vertex="1" parent="oDRWTTb9NCR1l0aIHSZ5-94">
          <mxGeometry y="26" width="230" height="26" as="geometry" />
        </mxCell>
        <mxCell id="oDRWTTb9NCR1l0aIHSZ5-96" value="- valor: double" style="text;strokeColor=none;fillColor=none;align=left;verticalAlign=top;spacingLeft=4;spacingRight=4;overflow=hidden;rotatable=0;points=[[0,0.5],[1,0.5]];portConstraint=eastwest;" vertex="1" parent="oDRWTTb9NCR1l0aIHSZ5-94">
          <mxGeometry y="52" width="230" height="26" as="geometry" />
        </mxCell>
        <mxCell id="oDRWTTb9NCR1l0aIHSZ5-97" value="mensagem: string" style="text;strokeColor=none;fillColor=none;align=left;verticalAlign=top;spacingLeft=4;spacingRight=4;overflow=hidden;rotatable=0;points=[[0,0.5],[1,0.5]];portConstraint=eastwest;" vertex="1" parent="oDRWTTb9NCR1l0aIHSZ5-94">
          <mxGeometry y="78" width="230" height="26" as="geometry" />
        </mxCell>
        <mxCell id="oDRWTTb9NCR1l0aIHSZ5-100" value="-tipo: TransacoesEnum" style="text;strokeColor=none;fillColor=none;align=left;verticalAlign=top;spacingLeft=4;spacingRight=4;overflow=hidden;rotatable=0;points=[[0,0.5],[1,0.5]];portConstraint=eastwest;" vertex="1" parent="oDRWTTb9NCR1l0aIHSZ5-94">
          <mxGeometry y="104" width="230" height="26" as="geometry" />
        </mxCell>
        <mxCell id="oDRWTTb9NCR1l0aIHSZ5-98" value="" style="line;strokeWidth=1;fillColor=none;align=left;verticalAlign=middle;spacingTop=-1;spacingLeft=3;spacingRight=3;rotatable=0;labelPosition=right;points=[];portConstraint=eastwest;" vertex="1" parent="oDRWTTb9NCR1l0aIHSZ5-94">
          <mxGeometry y="130" width="230" height="8" as="geometry" />
        </mxCell>
        <mxCell id="oDRWTTb9NCR1l0aIHSZ5-105" style="edgeStyle=orthogonalEdgeStyle;rounded=0;orthogonalLoop=1;jettySize=auto;html=1;exitX=1;exitY=0.5;exitDx=0;exitDy=0;entryX=0.004;entryY=0.115;entryDx=0;entryDy=0;entryPerimeter=0;endArrow=diamondThin;endFill=0;endSize=16;" edge="1" parent="WIyWlLk6GJQsqaUBKTNV-1" source="oDRWTTb9NCR1l0aIHSZ5-7" target="oDRWTTb9NCR1l0aIHSZ5-87">
          <mxGeometry relative="1" as="geometry" />
        </mxCell>
        <mxCell id="oDRWTTb9NCR1l0aIHSZ5-120" style="edgeStyle=orthogonalEdgeStyle;rounded=0;orthogonalLoop=1;jettySize=auto;html=1;exitX=0.5;exitY=0;exitDx=0;exitDy=0;endArrow=none;endFill=0;endSize=16;startArrow=diamondThin;startFill=1;targetPerimeterSpacing=18;sourcePerimeterSpacing=6;startSize=16;entryX=0.706;entryY=1.115;entryDx=0;entryDy=0;entryPerimeter=0;" edge="1" parent="WIyWlLk6GJQsqaUBKTNV-1" source="oDRWTTb9NCR1l0aIHSZ5-106">
          <mxGeometry relative="1" as="geometry">
            <mxPoint x="250.0399999999995" y="-421.00999999999976" as="targetPoint" />
            <Array as="points">
              <mxPoint x="255" y="-421" />
            </Array>
          </mxGeometry>
        </mxCell>
        <mxCell id="oDRWTTb9NCR1l0aIHSZ5-106" value="Transacao" style="swimlane;fontStyle=1;align=center;verticalAlign=top;childLayout=stackLayout;horizontal=1;startSize=26;horizontalStack=0;resizeParent=1;resizeParentMax=0;resizeLast=0;collapsible=1;marginBottom=0;" vertex="1" parent="WIyWlLk6GJQsqaUBKTNV-1">
          <mxGeometry x="140" y="-192" width="230" height="138" as="geometry" />
        </mxCell>
        <mxCell id="oDRWTTb9NCR1l0aIHSZ5-107" value="- id:int    " style="text;strokeColor=none;fillColor=none;align=left;verticalAlign=top;spacingLeft=4;spacingRight=4;overflow=hidden;rotatable=0;points=[[0,0.5],[1,0.5]];portConstraint=eastwest;" vertex="1" parent="oDRWTTb9NCR1l0aIHSZ5-106">
          <mxGeometry y="26" width="230" height="26" as="geometry" />
        </mxCell>
        <mxCell id="oDRWTTb9NCR1l0aIHSZ5-108" value="- valor: double" style="text;strokeColor=none;fillColor=none;align=left;verticalAlign=top;spacingLeft=4;spacingRight=4;overflow=hidden;rotatable=0;points=[[0,0.5],[1,0.5]];portConstraint=eastwest;" vertex="1" parent="oDRWTTb9NCR1l0aIHSZ5-106">
          <mxGeometry y="52" width="230" height="26" as="geometry" />
        </mxCell>
        <mxCell id="oDRWTTb9NCR1l0aIHSZ5-109" value="mensagem: string" style="text;strokeColor=none;fillColor=none;align=left;verticalAlign=top;spacingLeft=4;spacingRight=4;overflow=hidden;rotatable=0;points=[[0,0.5],[1,0.5]];portConstraint=eastwest;" vertex="1" parent="oDRWTTb9NCR1l0aIHSZ5-106">
          <mxGeometry y="78" width="230" height="26" as="geometry" />
        </mxCell>
        <mxCell id="oDRWTTb9NCR1l0aIHSZ5-110" value="-tipo: TransacoesEnum" style="text;strokeColor=none;fillColor=none;align=left;verticalAlign=top;spacingLeft=4;spacingRight=4;overflow=hidden;rotatable=0;points=[[0,0.5],[1,0.5]];portConstraint=eastwest;" vertex="1" parent="oDRWTTb9NCR1l0aIHSZ5-106">
          <mxGeometry y="104" width="230" height="26" as="geometry" />
        </mxCell>
        <mxCell id="oDRWTTb9NCR1l0aIHSZ5-111" value="" style="line;strokeWidth=1;fillColor=none;align=left;verticalAlign=middle;spacingTop=-1;spacingLeft=3;spacingRight=3;rotatable=0;labelPosition=right;points=[];portConstraint=eastwest;" vertex="1" parent="oDRWTTb9NCR1l0aIHSZ5-106">
          <mxGeometry y="130" width="230" height="8" as="geometry" />
        </mxCell>
        <mxCell id="oDRWTTb9NCR1l0aIHSZ5-112" style="edgeStyle=orthogonalEdgeStyle;rounded=0;orthogonalLoop=1;jettySize=auto;html=1;exitX=0;exitY=0.5;exitDx=0;exitDy=0;endArrow=diamondThin;endFill=1;endSize=16;" edge="1" parent="WIyWlLk6GJQsqaUBKTNV-1" source="oDRWTTb9NCR1l0aIHSZ5-96">
          <mxGeometry relative="1" as="geometry">
            <mxPoint x="380" y="-127" as="targetPoint" />
          </mxGeometry>
        </mxCell>
        <mxCell id="oDRWTTb9NCR1l0aIHSZ5-113" value="Parceiro" style="swimlane;fontStyle=1;align=center;verticalAlign=top;childLayout=stackLayout;horizontal=1;startSize=26;horizontalStack=0;resizeParent=1;resizeParentMax=0;resizeLast=0;collapsible=1;marginBottom=0;" vertex="1" parent="WIyWlLk6GJQsqaUBKTNV-1">
          <mxGeometry x="10" y="-510" width="340" height="60" as="geometry" />
        </mxCell>
        <mxCell id="oDRWTTb9NCR1l0aIHSZ5-114" value="nome: string" style="text;strokeColor=none;fillColor=none;align=left;verticalAlign=top;spacingLeft=4;spacingRight=4;overflow=hidden;rotatable=0;points=[[0,0.5],[1,0.5]];portConstraint=eastwest;" vertex="1" parent="oDRWTTb9NCR1l0aIHSZ5-113">
          <mxGeometry y="26" width="340" height="26" as="geometry" />
        </mxCell>
        <mxCell id="oDRWTTb9NCR1l0aIHSZ5-118" value="" style="line;strokeWidth=1;fillColor=none;align=left;verticalAlign=middle;spacingTop=-1;spacingLeft=3;spacingRight=3;rotatable=0;labelPosition=right;points=[];portConstraint=eastwest;" vertex="1" parent="oDRWTTb9NCR1l0aIHSZ5-113">
          <mxGeometry y="52" width="340" height="8" as="geometry" />
        </mxCell>
        <mxCell id="oDRWTTb9NCR1l0aIHSZ5-119" style="edgeStyle=orthogonalEdgeStyle;rounded=0;orthogonalLoop=1;jettySize=auto;html=1;exitX=1;exitY=0.5;exitDx=0;exitDy=0;entryX=0;entryY=0.5;entryDx=0;entryDy=0;endArrow=block;endFill=0;endSize=16;" edge="1" parent="WIyWlLk6GJQsqaUBKTNV-1" target="oDRWTTb9NCR1l0aIHSZ5-2">
          <mxGeometry relative="1" as="geometry">
            <mxPoint x="350" y="-445" as="sourcePoint" />
          </mxGeometry>
        </mxCell>
        <mxCell id="oDRWTTb9NCR1l0aIHSZ5-122" value="" style="shape=folder;fontStyle=1;spacingTop=10;tabWidth=40;tabHeight=14;tabPosition=left;html=1;fillColor=none;" vertex="1" parent="WIyWlLk6GJQsqaUBKTNV-1">
          <mxGeometry x="-90" y="-620" width="1320" height="610" as="geometry" />
        </mxCell>
        <mxCell id="oDRWTTb9NCR1l0aIHSZ5-123" value="MODEL" style="text;html=1;strokeColor=none;fillColor=none;align=center;verticalAlign=middle;whiteSpace=wrap;rounded=0;" vertex="1" parent="WIyWlLk6GJQsqaUBKTNV-1">
          <mxGeometry x="570" y="-560" width="60" height="30" as="geometry" />
        </mxCell>
        <mxCell id="oDRWTTb9NCR1l0aIHSZ5-128" style="edgeStyle=orthogonalEdgeStyle;rounded=0;orthogonalLoop=1;jettySize=auto;html=1;exitX=0;exitY=0;exitDx=505;exitDy=14;exitPerimeter=0;startArrow=none;startFill=0;endArrow=open;endFill=0;startSize=16;endSize=16;sourcePerimeterSpacing=6;targetPerimeterSpacing=18;dashed=1;" edge="1" parent="WIyWlLk6GJQsqaUBKTNV-1" source="oDRWTTb9NCR1l0aIHSZ5-127">
          <mxGeometry relative="1" as="geometry">
            <mxPoint x="425" as="targetPoint" />
            <Array as="points">
              <mxPoint x="425" y="174" />
            </Array>
          </mxGeometry>
        </mxCell>
        <mxCell id="oDRWTTb9NCR1l0aIHSZ5-127" value="" style="shape=folder;fontStyle=1;spacingTop=10;tabWidth=40;tabHeight=14;tabPosition=left;html=1;fillColor=none;" vertex="1" parent="WIyWlLk6GJQsqaUBKTNV-1">
          <mxGeometry x="-71" y="160" width="970" height="500" as="geometry" />
        </mxCell>
      </root>
    </mxGraphModel>
  </diagram>
</mxfile>
